<?xml version="1.0" encoding="UTF-8" standalone="no"?>
<!DOCTYPE svg PUBLIC "-//W3C//DTD SVG 1.1//EN"
 "http://www.w3.org/Graphics/SVG/1.1/DTD/svg11.dtd">
<!-- Generated by graphviz version 2.38.0 (20140413.2041)
 -->
<!-- Title: models_diagram Pages: 1 -->
<svg width="515pt" height="355pt"
 viewBox="0.00 0.00 515.41 355.00" xmlns="http://www.w3.org/2000/svg" xmlns:xlink="http://www.w3.org/1999/xlink">
<g id="graph0" class="graph" transform="scale(1 1) rotate(0) translate(4 351)">
<title>models_diagram</title>
<polygon fill="none" stroke="none" points="-4,4 -4,-351 511.412,-351 511.412,4 -4,4"/>
<!-- _diagram_info -->
<g id="node1" class="node"><title>_diagram_info</title>
<text text-anchor="start" x="8" y="-310.1" font-family="Times,serif" font-size="15.00">Models Diagram</text>
<text text-anchor="start" x="8" y="-289.1" font-family="Times,serif" font-size="13.00">Site - website to check</text>
<text text-anchor="start" x="8" y="-276.1" font-family="Times,serif" font-size="13.00">for malicious content.</text>
<text text-anchor="start" x="8" y="-263.1" font-family="Times,serif" font-size="13.00">Script - any script (including page</text>
<text text-anchor="start" x="8" y="-250.1" font-family="Times,serif" font-size="13.00">content) that website uses.</text>
<text text-anchor="start" x="8" y="-237.1" font-family="Times,serif" font-size="13.00">SorceCode - content of a Script</text>
<text text-anchor="start" x="8" y="-224.1" font-family="Times,serif" font-size="13.00">(scripts can have equal content)</text>
</g>
<!-- Script -->
<g id="node2" class="node"><title>Script</title>
<path fill="none" stroke="black" d="M300.439,-0.5C300.439,-0.5 425.001,-0.5 425.001,-0.5 431.001,-0.5 437.001,-6.5 437.001,-12.5 437.001,-12.5 437.001,-88.5 437.001,-88.5 437.001,-94.5 431.001,-100.5 425.001,-100.5 425.001,-100.5 300.439,-100.5 300.439,-100.5 294.439,-100.5 288.439,-94.5 288.439,-88.5 288.439,-88.5 288.439,-12.5 288.439,-12.5 288.439,-6.5 294.439,-0.5 300.439,-0.5"/>
<text text-anchor="middle" x="362.72" y="-85.3" font-family="Times,serif" font-size="14.00">Script</text>
<polyline fill="none" stroke="black" points="288.439,-78.5 437.001,-78.5 "/>
<text text-anchor="start" x="296.439" y="-63.3" font-family="Times,serif" font-size="14.00">_id :BSON::ObjectId</text>
<text text-anchor="start" x="296.439" y="-49.3" font-family="Times,serif" font-size="14.00">name :String</text>
<text text-anchor="start" x="296.439" y="-35.3" font-family="Times,serif" font-size="14.00">site_id :Object</text>
<text text-anchor="start" x="296.439" y="-21.3" font-family="Times,serif" font-size="14.00">source_code_id :Object</text>
<text text-anchor="start" x="296.439" y="-7.3" font-family="Times,serif" font-size="14.00">state :String</text>
</g>
<!-- Session -->
<g id="node3" class="node"><title>Session</title>
<path fill="none" stroke="black" d="M204.991,-260.5C204.991,-260.5 368.45,-260.5 368.45,-260.5 374.45,-260.5 380.45,-266.5 380.45,-272.5 380.45,-272.5 380.45,-334.5 380.45,-334.5 380.45,-340.5 374.45,-346.5 368.45,-346.5 368.45,-346.5 204.991,-346.5 204.991,-346.5 198.991,-346.5 192.991,-340.5 192.991,-334.5 192.991,-334.5 192.991,-272.5 192.991,-272.5 192.991,-266.5 198.991,-260.5 204.991,-260.5"/>
<text text-anchor="middle" x="286.72" y="-331.3" font-family="Times,serif" font-size="14.00">Session</text>
<polyline fill="none" stroke="black" points="192.991,-324.5 380.45,-324.5 "/>
<text text-anchor="start" x="200.991" y="-309.3" font-family="Times,serif" font-size="14.00">_id :BSON::ObjectId</text>
<text text-anchor="start" x="200.991" y="-295.3" font-family="Times,serif" font-size="14.00">browser :String</text>
<text text-anchor="start" x="200.991" y="-281.3" font-family="Times,serif" font-size="14.00">malicious_sites_count :Integer</text>
<text text-anchor="start" x="200.991" y="-267.3" font-family="Times,serif" font-size="14.00">safe_sites_count :Integer</text>
</g>
<!-- Site -->
<g id="node4" class="node"><title>Site</title>
<path fill="none" stroke="black" d="M231.029,-137.5C231.029,-137.5 342.412,-137.5 342.412,-137.5 348.412,-137.5 354.412,-143.5 354.412,-149.5 354.412,-149.5 354.412,-211.5 354.412,-211.5 354.412,-217.5 348.412,-223.5 342.412,-223.5 342.412,-223.5 231.029,-223.5 231.029,-223.5 225.029,-223.5 219.029,-217.5 219.029,-211.5 219.029,-211.5 219.029,-149.5 219.029,-149.5 219.029,-143.5 225.029,-137.5 231.029,-137.5"/>
<text text-anchor="middle" x="286.72" y="-208.3" font-family="Times,serif" font-size="14.00">Site</text>
<polyline fill="none" stroke="black" points="219.029,-201.5 354.412,-201.5 "/>
<text text-anchor="start" x="227.029" y="-186.3" font-family="Times,serif" font-size="14.00">_id :BSON::ObjectId</text>
<text text-anchor="start" x="227.029" y="-172.3" font-family="Times,serif" font-size="14.00">session_id :Object</text>
<text text-anchor="start" x="227.029" y="-158.3" font-family="Times,serif" font-size="14.00">state :String</text>
<text text-anchor="start" x="227.029" y="-144.3" font-family="Times,serif" font-size="14.00">url :String</text>
</g>
<!-- Session&#45;&gt;Site -->
<g id="edge1" class="edge"><title>Session&#45;&gt;Site</title>
<path fill="none" stroke="#be779b" d="M286.72,-251.986C286.72,-245.933 286.72,-239.742 286.72,-233.665"/>
<ellipse fill="none" stroke="#be779b" cx="286.72" cy="-256.18" rx="4" ry="4"/>
<polygon fill="#be779b" stroke="#be779b" points="286.72,-233.592 291.22,-223.592 286.72,-228.592 286.72,-223.592 286.72,-223.592 286.72,-223.592 286.72,-228.592 282.22,-223.592 286.72,-233.592 286.72,-233.592"/>
</g>
<!-- Site&#45;&gt;Script -->
<g id="edge2" class="edge"><title>Site&#45;&gt;Script</title>
<path fill="none" stroke="#430d1e" d="M315.936,-130.295C319.969,-123.501 324.143,-116.472 328.261,-109.537"/>
<ellipse fill="none" stroke="#430d1e" cx="313.858" cy="-133.794" rx="4.00002" ry="4.00002"/>
<polygon fill="#430d1e" stroke="#430d1e" points="328.326,-109.426 337.301,-103.125 330.879,-105.127 333.432,-100.828 333.432,-100.828 333.432,-100.828 330.879,-105.127 329.562,-98.5305 328.326,-109.426 328.326,-109.426"/>
</g>
<!-- SourceCode -->
<g id="node5" class="node"><title>SourceCode</title>
<path fill="none" stroke="black" d="M384.029,-137.5C384.029,-137.5 495.412,-137.5 495.412,-137.5 501.412,-137.5 507.412,-143.5 507.412,-149.5 507.412,-149.5 507.412,-211.5 507.412,-211.5 507.412,-217.5 501.412,-223.5 495.412,-223.5 495.412,-223.5 384.029,-223.5 384.029,-223.5 378.029,-223.5 372.029,-217.5 372.029,-211.5 372.029,-211.5 372.029,-149.5 372.029,-149.5 372.029,-143.5 378.029,-137.5 384.029,-137.5"/>
<text text-anchor="middle" x="439.72" y="-208.3" font-family="Times,serif" font-size="14.00">SourceCode</text>
<polyline fill="none" stroke="black" points="372.029,-201.5 507.412,-201.5 "/>
<text text-anchor="start" x="380.029" y="-186.3" font-family="Times,serif" font-size="14.00">_id :BSON::ObjectId</text>
<text text-anchor="start" x="380.029" y="-172.3" font-family="Times,serif" font-size="14.00">content :String</text>
<text text-anchor="start" x="380.029" y="-158.3" font-family="Times,serif" font-size="14.00">state :String</text>
<text text-anchor="start" x="380.029" y="-144.3" font-family="Times,serif" font-size="14.00">type :String</text>
</g>
<!-- SourceCode&#45;&gt;Script -->
<g id="edge3" class="edge"><title>SourceCode&#45;&gt;Script</title>
<path fill="none" stroke="#1f2fe4" d="M410.12,-130.295C406.034,-123.501 401.805,-116.472 397.633,-109.537"/>
<ellipse fill="none" stroke="#1f2fe4" cx="412.232" cy="-133.806" rx="4.00002" ry="4.00002"/>
<polygon fill="#1f2fe4" stroke="#1f2fe4" points="397.549,-109.397 396.25,-98.5082 394.971,-105.112 392.394,-100.828 392.394,-100.828 392.394,-100.828 394.971,-105.112 388.538,-103.148 397.549,-109.397 397.549,-109.397"/>
</g>
</g>
</svg>
